<svg aria-hidden="true" style="position: absolute; width: 0; height: 0; overflow: hidden;" version="1.1" xmlns="http://www.w3.org/2000/svg" xmlns:xlink="http://www.w3.org/1999/xlink">
<defs>
<symbol id="icon-facebook" viewBox="0 0 16 32">
<path d="M14.952 17.771l0.829-5.46h-5.187v-3.542c0-1.494 0.723-2.951 3.047-2.951h2.36v-4.649c0 0-2.141-0.369-4.186-0.369-4.274 0-7.065 2.616-7.065 7.349v4.162h-4.749v5.46h4.749v13.2c0.953 0.151 1.929 0.229 2.922 0.229s1.969-0.077 2.922-0.229v-13.2h4.358z"></path>
</symbol>
<symbol id="icon-instagram" viewBox="0 0 32 32">
<path d="M31.91 9.403c-0.077-1.704-0.352-2.87-0.743-3.888-0.41-1.050-0.954-1.947-1.844-2.831s-1.78-1.441-2.829-1.845c-1.018-0.397-2.183-0.666-3.886-0.743-1.709-0.077-2.253-0.096-6.593-0.096-4.346 0-4.891 0.019-6.593 0.096s-2.868 0.352-3.886 0.743c-1.056 0.41-1.952 0.954-2.836 1.845s-1.44 1.781-1.844 2.831c-0.39 1.018-0.666 2.184-0.743 3.888-0.077 1.71-0.096 2.255-0.096 6.597 0 4.349 0.019 4.893 0.096 6.597s0.352 2.869 0.743 3.888c0.41 1.050 0.954 1.947 1.844 2.831 0.883 0.89 1.78 1.441 2.829 1.845 1.018 0.397 2.183 0.666 3.886 0.743 1.709 0.077 2.253 0.096 6.593 0.096 4.347 0 4.891-0.019 6.593-0.096s2.868-0.352 3.886-0.743c1.050-0.41 1.946-0.954 2.829-1.845s1.44-1.781 1.844-2.831c0.397-1.018 0.666-2.184 0.743-3.888 0.077-1.71 0.096-2.255 0.096-6.597s-0.013-4.894-0.090-6.597zM29.036 22.469c-0.071 1.563-0.333 2.415-0.551 2.972-0.288 0.743-0.64 1.281-1.203 1.845s-1.095 0.903-1.844 1.204c-0.563 0.218-1.415 0.48-2.97 0.551-1.684 0.077-2.189 0.096-6.465 0.096s-4.782-0.019-6.465-0.096c-1.562-0.070-2.413-0.333-2.97-0.551-0.743-0.288-1.28-0.641-1.844-1.204s-0.903-1.095-1.203-1.845c-0.218-0.564-0.48-1.416-0.55-2.972-0.077-1.685-0.096-2.191-0.096-6.469s0.019-4.785 0.096-6.469c0.070-1.563 0.333-2.415 0.55-2.972 0.288-0.743 0.64-1.281 1.203-1.845s1.095-0.903 1.844-1.204c0.563-0.218 1.415-0.48 2.97-0.551 1.684-0.077 2.189-0.096 6.465-0.096s4.782 0.019 6.465 0.096c1.562 0.070 2.413 0.333 2.97 0.551 0.743 0.288 1.28 0.64 1.844 1.204s0.903 1.095 1.203 1.845c0.218 0.564 0.48 1.416 0.551 2.972 0.077 1.685 0.096 2.191 0.096 6.469s-0.026 4.785-0.096 6.469z"></path>
<path d="M16.003 7.776c-4.545 0-8.219 3.683-8.219 8.224 0 4.548 3.681 8.224 8.219 8.224s8.219-3.689 8.219-8.224c0-4.548-3.674-8.224-8.219-8.224zM16.003 21.335c-2.945 0-5.332-2.389-5.332-5.335s2.388-5.335 5.332-5.335c2.945 0 5.332 2.389 5.332 5.335s-2.388 5.335-5.332 5.335z"></path>
<path d="M24.542 9.377c1.061 0 1.92-0.86 1.92-1.922s-0.86-1.922-1.92-1.922c-1.061 0-1.92 0.86-1.92 1.922s0.86 1.922 1.92 1.922z"></path>
<path d="M0 16c0 4.349 0.019 4.893 0.096 6.597s0.352 2.869 0.743 3.888c0.41 1.050 0.954 1.947 1.844 2.831 0.883 0.884 1.78 1.441 2.829 1.845 1.018 0.397 2.183 0.666 3.886 0.743 1.709 0.077 2.253 0.096 6.593 0.096 4.347 0 4.891-0.019 6.593-0.096s2.868-0.352 3.886-0.743c1.050-0.41 1.946-0.954 2.829-1.845 0.883-0.884 1.44-1.781 1.844-2.831 0.397-1.018 0.666-2.184 0.743-3.888 0.077-1.71 0.096-2.255 0.096-6.597 0-4.349-0.019-4.894-0.096-6.597s-0.352-2.87-0.743-3.888c-0.41-1.050-0.954-1.947-1.844-2.831-0.877-0.89-1.773-1.441-2.823-1.845-1.018-0.397-2.183-0.666-3.886-0.743-1.709-0.077-2.253-0.096-6.593-0.096-4.346 0-4.891 0.019-6.593 0.096s-2.868 0.352-3.886 0.743c-1.050 0.41-1.946 0.954-2.829 1.845s-1.44 1.781-1.844 2.831c-0.397 1.018-0.672 2.184-0.749 3.888s-0.096 2.248-0.096 6.597zM2.887 16c0-4.272 0.019-4.785 0.096-6.469 0.070-1.563 0.333-2.415 0.55-2.972 0.288-0.743 0.64-1.281 1.203-1.845s1.095-0.903 1.844-1.204c0.563-0.218 1.415-0.48 2.97-0.551 1.684-0.077 2.189-0.096 6.465-0.096s4.782 0.019 6.465 0.096c1.562 0.070 2.413 0.333 2.97 0.551 0.743 0.288 1.28 0.64 1.844 1.204s0.903 1.095 1.203 1.845c0.218 0.564 0.48 1.416 0.551 2.972 0.077 1.685 0.096 2.191 0.096 6.469s-0.019 4.785-0.096 6.469c-0.071 1.563-0.333 2.415-0.551 2.972-0.288 0.743-0.64 1.281-1.203 1.845s-1.095 0.903-1.844 1.204c-0.563 0.218-1.415 0.48-2.97 0.551-1.684 0.077-2.189 0.096-6.465 0.096s-4.782-0.019-6.465-0.096c-1.562-0.070-2.413-0.333-2.97-0.551-0.743-0.288-1.28-0.641-1.844-1.204s-0.903-1.095-1.203-1.845c-0.218-0.564-0.48-1.416-0.55-2.972-0.083-1.685-0.096-2.197-0.096-6.469z"></path>
</symbol>
<symbol id="icon-rightArrow" viewBox="0 0 32 32">
<path d="M29.333 16l0.943-0.943 0.943 0.943-0.943 0.943-0.943-0.943zM1.333 17.333c-0.736 0-1.333-0.597-1.333-1.333s0.597-1.333 1.333-1.333v2.667zM24.943 9.724l5.333 5.333-1.886 1.886-5.333-5.333 1.886-1.886zM30.276 16.943l-5.333 5.333-1.886-1.886 5.333-5.333 1.886 1.886zM29.333 17.333h-28v-2.667h28v2.667z"></path>
</symbol>
<symbol id="icon-twitter" viewBox="0 0 32 32">
<path d="M28.076 9.574c0.012 0.282 0.012 0.55 0.012 0.832 0.012 8.538-6.26 18.394-17.731 18.394-3.383 0-6.705-1.011-9.557-2.906 0.494 0.064 0.988 0.090 1.482 0.090 2.803 0 5.532-0.973 7.742-2.778-2.667-0.051-5.013-1.856-5.828-4.493 0.938 0.192 1.902 0.154 2.815-0.115-2.902-0.589-4.988-3.238-5.001-6.323 0-0.026 0-0.051 0-0.077 0.864 0.499 1.84 0.781 2.828 0.806-2.729-1.894-3.581-5.67-1.926-8.627 3.173 4.045 7.841 6.49 12.854 6.758-0.506-2.24 0.185-4.595 1.803-6.182 2.507-2.445 6.458-2.317 8.829 0.282 1.395-0.282 2.741-0.819 3.964-1.574-0.469 1.498-1.445 2.765-2.741 3.571 1.235-0.154 2.445-0.499 3.581-1.011-0.84 1.306-1.902 2.432-3.124 3.354z"></path>
</symbol>
<symbol id="icon-youtube" viewBox="0 0 32 32">
<path fill="#222" style="fill: var(--color1, #222)" d="M31.341 8.306c-0.369-1.371-1.45-2.451-2.82-2.82-2.504-0.685-12.521-0.685-12.521-0.685s-10.016 0-12.52 0.659c-1.344 0.369-2.451 1.476-2.82 2.847-0.659 2.504-0.659 7.697-0.659 7.697s0 5.219 0.659 7.697c0.369 1.371 1.45 2.451 2.82 2.82 2.53 0.685 12.52 0.685 12.52 0.685s10.017 0 12.521-0.659c1.371-0.369 2.451-1.45 2.82-2.82 0.659-2.504 0.659-7.697 0.659-7.697s0.026-5.219-0.659-7.723z"></path>
<path fill="#fff" style="fill: var(--color2, #fff)" d="M12.811 20.8l8.329-4.797-8.329-4.797v9.595z"></path>
</symbol>
</defs>
</svg>
